<?xml version="1.0" encoding="iso-8859-1"?>
<!-- Generator: Adobe Illustrator 19.0.0, SVG Export Plug-In . SVG Version: 6.00 Build 0)  -->
<svg version="1.1" id="Capa_1" xmlns="http://www.w3.org/2000/svg" xmlns:xlink="http://www.w3.org/1999/xlink" x="0px" y="0px"
	 viewBox="0 0 473.28 473.28" style="enable-background:new 0 0 473.28 473.28;" xml:space="preserve">
<path style="fill:#F48967;" d="M139.751,465.28V315.52l-54,142.48l-42.88-19.12l55.04-219.12l90.72-53.44v-0.48
	c-12.291-19.061-18.691-41.322-18.4-64c0-51.44,29.76-93.36,66.32-93.36s66.32,41.84,66.32,93.36
	c0.078,22.251-6.255,44.053-18.24,62.8l-0.48,0.64l-0.48,0.48l91.28,53.6l55.04,219.12l-42.96,19.12l-53.52-142.08v149.76H139.751z
	 M236.631,48.24c-20.8,0-37.68,28.08-37.68,62.64s16.88,62.64,37.68,62.64s37.68-28.08,37.68-62.64S257.431,48.24,236.631,48.24z"/>
<ellipse style="fill:#FFFFFF;" cx="236.631" cy="110.88" rx="37.68" ry="62.64"/>
<path style="fill:#FFC97B;" d="M176.631,426.72v-34.64l4.64-2.16c12.753-7.096,21.585-19.608,24-34l1.44-6.24h59.28l1.44,6.24
	c2.415,14.392,11.247,26.904,24,34l4.64,2.16v34.64L176.631,426.72z"/>
<g>
	<path style="fill:#4C382B;" d="M162.311,101.28c-0.121,21.779,5.39,43.22,16,62.24l-84.48,49.12
		c-1.841,1.094-3.167,2.881-3.68,4.96l-55.04,219.04c-0.963,3.771,0.928,7.688,4.48,9.28l42.96,19.12
		c4.033,1.803,8.765-0.004,10.569-4.038c0.053-0.119,0.104-0.24,0.151-0.362l38.48-101.6v106.24c0,4.418,3.582,8,8,8h193.76
		c4.418,0,8-3.582,8-8v-106l38.48,101.36c1.566,4.132,6.184,6.212,10.316,4.646c0.136-0.052,0.271-0.107,0.404-0.166l42.96-19.12
		c3.589-1.597,5.487-5.563,4.48-9.36l-55.04-218.8c-0.513-2.079-1.839-3.866-3.68-4.96l-84.08-49.36
		c10.61-19.02,16.121-40.461,16-62.24c0-56-33.36-101.28-74.32-101.28S162.311,45.44,162.311,101.28L162.311,101.28z M236.631,16
		c32,0,58.32,38.24,58.32,85.36c0.351,20.96-5.433,41.565-16.64,59.28c-1.497,1.51-2.332,3.554-2.32,5.68v44.8
		c-7.293,4.418-9.624,13.912-5.206,21.206c4.418,7.293,13.912,9.624,21.206,5.206c7.293-4.418,9.624-13.912,5.206-21.206
		c-1.29-2.13-3.076-3.916-5.206-5.206v-31.04l76.48,44.88l52.16,209.36l-29.04,12.96l-50.96-134.56
		c-1.507-4.153-6.095-6.299-10.249-4.792c-3.189,1.157-5.301,4.2-5.271,7.592v141.76h-177.36V315.52
		c-0.427-4.398-4.339-7.616-8.736-7.189c-2.742,0.266-5.153,1.924-6.384,4.389l-51.36,134.56l-28.64-12.96l52.64-209.36l76.24-44.72
		v30.8c-7.293,4.418-9.624,13.912-5.206,21.206c4.418,7.293,13.912,9.624,21.206,5.206c7.293-4.418,9.624-13.912,5.206-21.206
		c-1.29-2.13-3.076-3.916-5.206-5.206v-44.8c0,0,0-0.48,0-0.8c0.041-0.479,0.041-0.961,0-1.44c-0.155-0.555-0.37-1.091-0.64-1.6
		c0.012-0.24,0.012-0.48,0-0.72c-11.7-17.943-17.747-38.983-17.36-60.4C178.311,54.24,204.631,16,236.631,16L236.631,16z"/>
	<path style="fill:#4C382B;" d="M236.631,181.52c25.6,0,45.68-31.04,45.68-70.64s-20.08-70.64-45.68-70.64s-45.68,31.04-45.68,70.64
		S211.031,181.52,236.631,181.52z M236.631,56.24c16,0,29.68,25.04,29.68,54.64s-13.68,54.64-29.68,54.64s-29.68-24.88-29.68-54.64
		S220.631,56.24,236.631,56.24z"/>
	<path style="fill:#4C382B;" d="M206.631,341.68c-4.152-0.017-7.626,3.145-8,7.28c0,0-2.8,28.24-24.4,35.12
		c-3.466,1.086-5.766,4.371-5.6,8v35.04c0,4.418,3.582,8,8,8h120c4.418,0,8-3.582,8-8v-35.44c0.166-3.629-2.134-6.914-5.6-8
		c-21.44-6.8-24.4-34.8-24.4-35.12c-0.374-4.135-3.848-7.297-8-7.28L206.631,341.68z M288.631,397.12v21.52h-104v-21.52
		c15.098-8.066,25.678-22.595,28.72-39.44h46.56C262.953,374.525,273.533,389.054,288.631,397.12z"/>
</g>
<g>
</g>
<g>
</g>
<g>
</g>
<g>
</g>
<g>
</g>
<g>
</g>
<g>
</g>
<g>
</g>
<g>
</g>
<g>
</g>
<g>
</g>
<g>
</g>
<g>
</g>
<g>
</g>
<g>
</g>
</svg>
